<?xml version="1.0" encoding="UTF-8"?>
<svg id="Capa_2" data-name="Capa 2" xmlns="http://www.w3.org/2000/svg" viewBox="0 0 302.85 150.07">
  <defs>
    <style>
      .cls-1 {
        fill: #002147;
      }

      .cls-1, .cls-2 {
        stroke-width: 0px;
      }

      .cls-2 {
        fill: #f2c201;
      }
    </style>
  </defs>
  <g id="Capa_1-2" data-name="Capa 1">
    <path class="cls-1" d="m65.63,29.47h-30.68c-3.07,0-5.56,2.49-5.56,5.56v79.85h.02c0,.07-.02.14-.02.21,0,3.07,2.49,5.56,5.56,5.56s5.56-2.49,5.56-5.56c0-.07-.02-.14-.02-.21h.02v-40.11h15.97c2.97,0,5.37-2.41,5.37-5.37s-2.41-5.37-5.37-5.37h-15.97v-23.43h25.12c3.07,0,5.56-2.49,5.56-5.56s-2.49-5.56-5.56-5.56Z"/>
    <path class="cls-2" d="m114.94,29.48c-3.07,0-5.57,2.49-5.57,5.57v11.64c0,3.07,2.49,5.57,5.57,5.57s5.57-2.49,5.57-5.57v-11.64c0-3.07-2.49-5.57-5.57-5.57Z"/>
    <path class="cls-1" d="m29.77,139.14H10.92v-18.84c0-3.02-2.45-5.46-5.46-5.46s-5.46,2.45-5.46,5.46v24.3c0,3.02,2.45,5.46,5.46,5.46h24.3c3.02,0,5.46-2.45,5.46-5.46s-2.45-5.46-5.46-5.46Z"/>
    <path class="cls-1" d="m144.57,0h-24.3c-3.02,0-5.46,2.45-5.46,5.46s2.45,5.46,5.46,5.46h18.84v18.84c0,3.02,2.45,5.46,5.46,5.46s5.46-2.45,5.46-5.46V5.46c0-3.02-2.45-5.46-5.46-5.46Z"/>
    <path class="cls-1" d="m93.33,0H5.46C2.45,0,0,2.45,0,5.46v87.87h.04c-.01.14-.04.27-.04.4,0,3.02,2.45,5.46,5.46,5.46s5.46-2.44,5.46-5.46c0-.14-.03-.27-.04-.4h.04V10.92h82.41c3.02,0,5.46-2.45,5.46-5.46s-2.44-5.46-5.46-5.46Z"/>
    <path class="cls-1" d="m144.57,51.27c-3.02,0-5.46,2.44-5.46,5.46v82.41H56.7c-3.02,0-5.46,2.45-5.46,5.46s2.44,5.46,5.46,5.46h87.87c3.02,0,5.46-2.45,5.46-5.46V56.73c0-3.02-2.45-5.46-5.46-5.46Z"/>
    <path class="cls-1" d="m114.94,63.89h-23.48v-28.85c0-3.07-2.49-5.57-5.57-5.57s-5.57,2.49-5.57,5.57v34.42c0,2.98,2.35,5.4,5.3,5.54v.02h.15s.08.01.12.01.08-.01.12-.01h23.36v34.43h-18.17v-10.14c0-3.07-2.49-5.57-5.57-5.57s-5.57,2.49-5.57,5.57v15.71c0,3.07,2.49,5.57,5.57,5.57h28.98v-.03c.11,0,.21.03.33.03,3.07,0,5.57-2.49,5.57-5.57v-45.55c0-3.07-2.49-5.57-5.57-5.57Z"/>
    <g>
      <path class="cls-1" d="m180.35,67.21h-3.45V31.82h14.35v3.17h-10.91v12.79h10.19v3.17h-10.19v16.26Z"/>
      <path class="cls-1" d="m197.61,67.21h-3.45V31.82h8.2c2.94,0,5.08.48,6.43,1.44,1.35.96,2.09,2.54,2.24,4.76.16,1.85.24,3.54.22,5.08-.02,1.54-.09,3.09-.22,4.66-.08,1.5-.5,2.71-1.26,3.61-.76.9-1.95,1.57-3.57,2l6.22,13.86h-3.77l-5.8-13.26h-5.25v13.26Zm0-32.22v15.79h4.66c1.87,0,3.21-.23,4.03-.69.82-.46,1.26-1.18,1.33-2.16.25-3.37.25-6.73,0-10.09-.07-.97-.5-1.69-1.31-2.16-.81-.46-2.12-.69-3.94-.69h-4.76Z"/>
      <path class="cls-1" d="m218.06,67.21h-3.52l5.6-35.4h7.09l5.65,35.4h-3.52l-1.54-9.82h-8.23l-1.54,9.82Zm2.97-20.7l-1.12,7.71h7.59l-1.07-7.73-1.74-11.5h-1.96l-1.71,11.53Z"/>
      <path class="cls-1" d="m239.47,67.21h-3.37V31.82h6.32l2.75,11.23,4.59,21h1.39l-.57-19.28-.17-12.94h3.4v35.4h-6.49l-3.12-12.52-3.94-19.73h-1.49l.52,18.96.2,13.29Z"/>
      <path class="cls-1" d="m261.81,67.21h-3.52V31.82h3.62v8.4l-.45,8.85h.99l4.39-9.52,3.52-7.73h3.82l-7.76,15.62,8.65,19.78h-3.64l-7.19-15.62-2.43,4.71v10.91Z"/>
      <path class="cls-1" d="m282.33,67.21h-3.45V31.82h3.45v35.4Z"/>
      <path class="cls-1" d="m302.85,67.21h-14.9V31.82h14.9v3.17h-11.45v12.79h10.68v3.17h-10.68v13.09h11.45v3.17Z"/>
      <path class="cls-1" d="m185.41,118.3c-3.11,0-5.35-.49-6.74-1.47s-2.12-2.61-2.21-4.87c-.08-1.26-.11-2.4-.09-3.42s.08-2.17.16-3.45h3.35c-.1,1.27-.15,2.54-.14,3.79,0,1.26.05,2.47.14,3.64.08.96.54,1.66,1.36,2.12.83.45,2.19.68,4.09.68s3.19-.23,3.98-.68c.78-.45,1.23-1.16,1.33-2.12.08-1.17.12-2.19.11-3.06,0-.87-.05-1.95-.11-3.23-.07-1.02-.33-1.88-.81-2.58s-1.52-1.15-3.14-1.36l-3.54-.64c-1.87-.31-3.27-.77-4.2-1.38-.93-.6-1.57-1.38-1.91-2.33-.34-.95-.54-2.11-.61-3.48-.05-.91-.07-1.88-.05-2.91.02-1.03.05-2.04.1-3.01.03-2.25.72-3.85,2.07-4.82,1.35-.97,3.61-1.45,6.78-1.45,2.92,0,5.05.49,6.38,1.46,1.33.97,2.04,2.59,2.12,4.83.05.78.07,1.74.05,2.89-.02,1.15-.05,2.33-.1,3.56h-3.37c.11-1.17.17-2.35.17-3.52s-.04-2.34-.12-3.5c-.07-.94-.5-1.64-1.3-2.08-.8-.45-2.1-.67-3.9-.67s-3.2.22-4,.67c-.8.45-1.24,1.14-1.33,2.08-.08,1.06-.12,2.13-.11,3.22,0,1.09.05,2.17.11,3.25.07,1.21.33,2.13.78,2.76.45.64,1.53,1.05,3.23,1.25l3.47.55c1.87.28,3.27.74,4.21,1.36s1.58,1.43,1.92,2.39c.34.97.53,2.12.58,3.46.08,1.22.11,2.21.1,2.97-.02.76-.07,1.68-.15,2.75-.12,2.26-.85,3.89-2.19,4.87-1.35.98-3.51,1.47-6.48,1.47Z"/>
      <path class="cls-1" d="m213.02,117.98h-14.9v-35.4h14.9v3.17h-11.45v12.79h10.68v3.17h-10.68v13.09h11.45v3.17Z"/>
      <path class="cls-1" d="m225.1,118.3c-3.14,0-5.4-.49-6.77-1.47-1.37-.98-2.09-2.61-2.16-4.87-.15-3.78-.22-7.66-.22-11.64s.07-7.84.22-11.59c.07-2.33.78-3.99,2.16-4.98,1.37-.99,3.6-1.49,6.69-1.49s5.2.49,6.58,1.46c1.38.97,2.13,2.59,2.24,4.83.1,1.06.14,2.13.14,3.22,0,1.09-.05,2.16-.14,3.22h-3.45c.08-1.12.13-2.29.14-3.51,0-1.21-.04-2.38-.14-3.51-.07-.94-.53-1.64-1.39-2.08-.86-.45-2.19-.67-3.99-.67s-3.19.22-4.05.67-1.32,1.14-1.35,2.08c-.13,4.08-.19,8.18-.19,12.28,0,4.11.07,8.19.19,12.26.03.96.47,1.66,1.31,2.12s2.23.68,4.16.68,3.33-.23,4.24-.68c.91-.45,1.4-1.16,1.46-2.12.03-2.25.03-4.49,0-6.72h-5.83v-3.12h9.17c.08,1.16.13,2.5.15,4.04.02,1.54-.02,3.28-.12,5.23-.05,2.26-.79,3.89-2.22,4.87-1.43.98-3.71,1.47-6.85,1.47Z"/>
      <path class="cls-1" d="m246.98,118.3c-3.19,0-5.49-.49-6.92-1.46-1.42-.97-2.14-2.58-2.16-4.81-.23-9.82-.23-19.63,0-29.45h3.45c-.1,4.89-.17,9.89-.2,15.01-.03,5.11,0,10.13.07,15.03,0,1.8,1.92,2.7,5.75,2.7,1.98,0,3.41-.22,4.29-.67.88-.45,1.31-1.12,1.31-2.03.08-4.91.12-9.92.12-15.03s-.04-10.12-.12-15.01h3.45c.2,9.82.2,19.63,0,29.45-.02,2.23-.74,3.83-2.16,4.81-1.42.97-3.72,1.46-6.89,1.46Z"/>
      <path class="cls-1" d="m263.81,117.98h-3.45v-35.4h8.2c2.94,0,5.08.48,6.43,1.44,1.35.96,2.09,2.54,2.24,4.76.16,1.85.24,3.54.22,5.08-.02,1.54-.09,3.09-.22,4.66-.08,1.5-.5,2.71-1.26,3.61-.76.9-1.95,1.57-3.57,2l6.22,13.86h-3.77l-5.8-13.26h-5.25v13.26Zm0-32.22v15.79h4.66c1.87,0,3.21-.23,4.03-.69s1.26-1.18,1.33-2.16c.25-3.37.25-6.73,0-10.09-.07-.97-.5-1.69-1.31-2.16-.81-.46-2.12-.69-3.94-.69h-4.76Z"/>
      <path class="cls-1" d="m284.26,117.98h-3.52l5.6-35.4h7.09l5.65,35.4h-3.52l-1.54-9.82h-8.23l-1.54,9.82Zm2.97-20.7l-1.12,7.71h7.59l-1.07-7.73-1.74-11.5h-1.96l-1.71,11.53Z"/>
    </g>
  </g>
</svg>