<?xml version="1.0" encoding="UTF-8"?>
<svg id="Capa_2" data-name="Capa 2" xmlns="http://www.w3.org/2000/svg" viewBox="0 0 84.77 84.79">
  <defs>
    <style>
      .cls-1 {
        fill: #002147;
      }

      .cls-1, .cls-2 {
        stroke-width: 0px;
      }

      .cls-2 {
        fill: #f2c201;
      }
    </style>
  </defs>
  <g id="Capa_1-2" data-name="Capa 1">
    <path class="cls-1" d="m37.08,16.65h-17.34c-1.73,0-3.14,1.41-3.14,3.14v45.12h.01s-.01.08-.01.12c0,1.73,1.41,3.14,3.14,3.14s3.14-1.41,3.14-3.14c0-.04-.01-.08-.01-.12h.01v-22.66h9.03c1.68,0,3.04-1.36,3.04-3.04s-1.36-3.04-3.04-3.04h-9.03v-13.24h14.2c1.73,0,3.14-1.41,3.14-3.14s-1.41-3.14-3.14-3.14Z"/>
    <path class="cls-2" d="m64.94,16.65c-1.74,0-3.15,1.41-3.15,3.15v6.58c0,1.74,1.41,3.15,3.15,3.15s3.15-1.41,3.15-3.15v-6.58c0-1.74-1.41-3.15-3.15-3.15Z"/>
    <path class="cls-1" d="m16.82,78.62H6.17v-10.65c0-1.7-1.38-3.09-3.09-3.09s-3.09,1.38-3.09,3.09v13.73c0,1.7,1.38,3.09,3.09,3.09h13.73c1.7,0,3.09-1.38,3.09-3.09s-1.38-3.09-3.09-3.09Z"/>
    <path class="cls-1" d="m81.69,0h-13.73c-1.7,0-3.09,1.38-3.09,3.09s1.38,3.09,3.09,3.09h10.65v10.65c0,1.7,1.38,3.09,3.09,3.09s3.09-1.38,3.09-3.09V3.09c0-1.7-1.38-3.09-3.09-3.09Z"/>
    <path class="cls-1" d="m52.73,0H3.09C1.38,0,0,1.38,0,3.09v49.65h.02c0,.08-.02.15-.02.23,0,1.7,1.38,3.09,3.09,3.09s3.09-1.38,3.09-3.09c0-.08-.02-.15-.02-.23h.02V6.17h46.56c1.7,0,3.09-1.38,3.09-3.09s-1.38-3.09-3.09-3.09Z"/>
    <path class="cls-1" d="m81.69,28.97c-1.7,0-3.09,1.38-3.09,3.09v46.56h-46.56c-1.7,0-3.09,1.38-3.09,3.09s1.38,3.09,3.09,3.09h49.65c1.7,0,3.09-1.38,3.09-3.09v-49.65c0-1.7-1.38-3.09-3.09-3.09Z"/>
    <path class="cls-1" d="m64.94,36.1h-13.27v-16.3c0-1.74-1.41-3.15-3.15-3.15s-3.15,1.41-3.15,3.15v19.45c0,1.69,1.33,3.05,2.99,3.13h0s.08,0,.08,0c.02,0,.04,0,.07,0s.04,0,.07,0h13.2v19.45h-10.27v-5.73c0-1.74-1.41-3.15-3.15-3.15s-3.15,1.41-3.15,3.15v8.87c0,1.74,1.41,3.15,3.15,3.15h16.37v-.02c.06,0,.12.02.18.02,1.74,0,3.15-1.41,3.15-3.15v-25.74c0-1.74-1.41-3.15-3.15-3.15Z"/>
  </g>
</svg>